<svg width="16" height="16" viewBox="0 0 16 16" fill="none" xmlns="http://www.w3.org/2000/svg">
<path d="M2.51839 7.96152C1.88638 6.85945 1.58121 5.95957 1.39721 5.04739C1.12506 3.69831 1.74785 2.38046 2.77957 1.53957C3.21561 1.18417 3.71547 1.3056 3.97331 1.76819L4.55543 2.81253C5.01684 3.6403 5.24754 4.05418 5.20178 4.49298C5.15603 4.93178 4.84489 5.28916 4.22263 6.00393L2.51839 7.96152ZM2.51839 7.96152C3.79765 10.1921 5.80521 12.2008 8.03838 13.4815M8.03838 13.4815C9.14045 14.1135 10.0403 14.4187 10.9525 14.6027C12.3016 14.8749 13.6194 14.2521 14.4603 13.2203C14.8157 12.7843 14.6943 12.2845 14.2317 12.0266L13.1874 11.4445C12.3596 10.9831 11.9457 10.7524 11.5069 10.7981C11.0681 10.8439 10.7107 11.155 9.99598 11.7773L8.03838 13.4815Z" stroke="#C1CF16" stroke-width="1.5" stroke-linejoin="round"/>
</svg>
