<svg width="16" height="16" viewBox="0 0 16 16" fill="none" xmlns="http://www.w3.org/2000/svg">
<path d="M11.3334 7.86963C11.3334 7.63916 11.3334 7.52396 11.368 7.42129C11.4688 7.12289 11.7346 7.00716 12.0008 6.88589C12.3 6.74956 12.4496 6.68143 12.5979 6.66943C12.7662 6.65581 12.9348 6.69209 13.0787 6.77283C13.2694 6.87983 13.4024 7.08323 13.5386 7.24863C14.1676 8.01249 14.482 8.39449 14.597 8.81569C14.6899 9.15556 14.6899 9.51103 14.597 9.85089C14.4292 10.4652 13.899 10.9802 13.5066 11.4569C13.3058 11.7007 13.2054 11.8226 13.0787 11.8938C12.9348 11.9745 12.7662 12.0108 12.5979 11.9972C12.4496 11.9852 12.3 11.917 12.0008 11.7807C11.7346 11.6594 11.4688 11.5437 11.368 11.2453C11.3334 11.1426 11.3334 11.0274 11.3334 10.797V7.86963Z" stroke="#495D69" stroke-width="1.5"/>
<path d="M4.66671 7.86967C4.66671 7.57954 4.65856 7.31874 4.42398 7.11474C4.33866 7.04054 4.22554 6.98901 3.99931 6.88594C3.70005 6.74967 3.55041 6.68154 3.40215 6.66954C2.95731 6.63354 2.71799 6.93714 2.46146 7.24874C1.83254 8.01261 1.51808 8.39454 1.40301 8.81574C1.31016 9.15567 1.31016 9.51114 1.40301 9.85101C1.57084 10.4653 2.10105 10.9803 2.49351 11.457C2.7409 11.7575 2.97722 12.0316 3.40215 11.9973C3.55041 11.9853 3.70005 11.9171 3.99931 11.7808C4.22554 11.6777 4.33866 11.6262 4.42398 11.552C4.65856 11.348 4.66671 11.0873 4.66671 10.7971V7.86967Z" stroke="#495D69" stroke-width="1.5"/>
<path d="M13.3333 7.00004V6.00004C13.3333 3.42271 10.9455 1.33337 7.99996 1.33337C5.05444 1.33337 2.66663 3.42271 2.66663 6.00004V7.00004" stroke="#495D69" stroke-width="1.5" stroke-linecap="round" stroke-linejoin="round"/>
<path d="M13.3333 11.6666C13.3333 14.6666 10.6667 14.6666 8 14.6666" stroke="#495D69" stroke-width="1.5" stroke-linecap="round" stroke-linejoin="round"/>
</svg>
