<svg width="16" height="16" viewBox="0 0 16 16" fill="none" xmlns="http://www.w3.org/2000/svg">
<path d="M1.66669 7.99996C1.66669 5.0144 1.66669 3.52162 2.59418 2.59412C3.52168 1.66663 5.01446 1.66663 8.00002 1.66663C10.9856 1.66663 12.4784 1.66663 13.4059 2.59412C14.3334 3.52162 14.3334 5.0144 14.3334 7.99996C14.3334 10.9855 14.3334 12.4783 13.4059 13.4058C12.4784 14.3333 10.9856 14.3333 8.00002 14.3333C5.01446 14.3333 3.52168 14.3333 2.59418 13.4058C1.66669 12.4783 1.66669 10.9855 1.66669 7.99996Z" stroke="#0C0D0D" stroke-width="1.5" stroke-linejoin="round"/>
<path d="M11 8C11 9.65687 9.65687 11 8 11C6.34315 11 5 9.65687 5 8C5 6.34315 6.34315 5 8 5C9.65687 5 11 6.34315 11 8Z" stroke="#0C0D0D" stroke-width="1.5"/>
<path d="M11.6719 4.33337H11.6659" stroke="#0C0D0D" stroke-width="2" stroke-linecap="round" stroke-linejoin="round"/>
</svg>
