<svg width="16" height="16" viewBox="0 0 16 16" fill="none" xmlns="http://www.w3.org/2000/svg">
<path d="M7.3992 2.00012C4.96653 2.0045 3.69265 2.06424 2.87855 2.87847C2 3.75716 2 5.1714 2 7.99984C2 10.8283 2 12.2426 2.87855 13.1212C3.7571 14 5.17112 14 7.99913 14C10.8271 14 12.2411 14 13.1197 13.1212C13.9338 12.307 13.9935 11.0329 13.9979 8.59991" stroke="#141C24" stroke-width="1.5" stroke-linecap="round" stroke-linejoin="round"/>
<path d="M13.704 2.33096L7.36584 8.70598M13.704 2.33096C13.3748 2.00121 11.1563 2.03194 10.6873 2.03862M13.704 2.33096C14.0334 2.6607 14.0027 4.88202 13.996 5.35163" stroke="#0C0D0D" stroke-width="1.5" stroke-linecap="round" stroke-linejoin="round"/>
</svg>
