<svg width="16" height="16" viewBox="0 0 16 16" fill="none" xmlns="http://www.w3.org/2000/svg">
<path d="M2.99998 6.33337H2.66665C2.03811 6.33337 1.72384 6.33337 1.52857 6.52863C1.33331 6.72391 1.33331 7.03817 1.33331 7.66671V13.3334C1.33331 13.9619 1.33331 14.2762 1.52857 14.4714C1.72384 14.6667 2.03811 14.6667 2.66665 14.6667H2.99998C3.62852 14.6667 3.94279 14.6667 4.13805 14.4714C4.33331 14.2762 4.33331 13.9619 4.33331 13.3334V7.66671C4.33331 7.03817 4.33331 6.72391 4.13805 6.52863C3.94279 6.33337 3.62852 6.33337 2.99998 6.33337Z" stroke="#0C0D0D" stroke-width="1.5"/>
<path d="M4.33331 2.83337C4.33331 3.6618 3.66174 4.33337 2.83331 4.33337C2.00489 4.33337 1.33331 3.6618 1.33331 2.83337C1.33331 2.00495 2.00489 1.33337 2.83331 1.33337C3.66174 1.33337 4.33331 2.00495 4.33331 2.83337Z" stroke="#0C0D0D" stroke-width="1.5"/>
<path d="M8.21731 6.33337H7.66665C7.03811 6.33337 6.72385 6.33337 6.52857 6.52863C6.33331 6.72391 6.33331 7.03817 6.33331 7.66671V13.3334C6.33331 13.9619 6.33331 14.2762 6.52857 14.4714C6.72385 14.6667 7.03811 14.6667 7.66665 14.6667H7.99998C8.62851 14.6667 8.94278 14.6667 9.13805 14.4714C9.33331 14.2762 9.33331 13.9619 9.33331 13.3334L9.33338 11.0001C9.33338 9.89557 9.68538 9.00011 10.7252 9.00011C11.2451 9.00011 11.6666 9.44784 11.6666 10.0001V13.0001C11.6666 13.6286 11.6666 13.9429 11.8619 14.1382C12.0571 14.3334 12.3714 14.3334 13 14.3334H13.3324C13.9608 14.3334 14.275 14.3334 14.4703 14.1382C14.6656 13.943 14.6656 13.6288 14.6658 13.0004L14.6667 9.33351C14.6667 7.67671 13.0909 6.33353 11.5312 6.33353C10.6432 6.33353 9.85111 6.76877 9.33338 7.44937C9.33331 7.02931 9.33331 6.81931 9.24211 6.66337C9.18431 6.56461 9.10205 6.48239 9.00331 6.42462C8.84738 6.33337 8.63738 6.33337 8.21731 6.33337Z" stroke="#0C0D0D" stroke-width="1.5" stroke-linejoin="round"/>
</svg>
