<svg width="16" height="16" viewBox="0 0 16 16" fill="none" xmlns="http://www.w3.org/2000/svg">
<path d="M9.66068 10.3333H9.66668M6.33334 10.3333H6.33932" stroke="#C1CF16" stroke-width="2" stroke-linecap="round" stroke-linejoin="round"/>
<path d="M2.8452 12.5631C2.99512 13.6767 3.91741 14.549 5.03976 14.6006C5.98417 14.644 6.94352 14.6667 7.99999 14.6667C9.05646 14.6667 10.0158 14.644 10.9602 14.6006C12.0826 14.549 13.0049 13.6767 13.1548 12.5631C13.2527 11.8365 13.3333 11.0917 13.3333 10.3333C13.3333 9.57493 13.2527 8.8302 13.1548 8.10353C13.0049 6.99 12.0826 6.11766 10.9602 6.06606C10.0158 6.02265 9.05646 6 7.99999 6C6.94352 6 5.98417 6.02265 5.03976 6.06606C3.91741 6.11766 2.99512 6.99 2.8452 8.10353C2.74736 8.8302 2.66666 9.57493 2.66666 10.3333C2.66666 11.0917 2.74736 11.8365 2.8452 12.5631Z" stroke="#C1CF16" stroke-width="1.5"/>
<path d="M5 6V4.33333C5 2.67648 6.34315 1.33333 8 1.33333C9.65687 1.33333 11 2.67648 11 4.33333V6" stroke="#C1CF16" stroke-width="1.5" stroke-linecap="round" stroke-linejoin="round"/>
</svg>
