<svg width="22" height="23" viewBox="0 0 22 23" fill="none" xmlns="http://www.w3.org/2000/svg">
<g filter="url(#filter0_d_191_94)">
<path d="M9 4.24997C9.04907 3.01537 10.0779 1.96704 11.4563 2.00077C11.7769 2.00857 12.1733 2.12037 12.9659 2.34397C14.8736 2.88204 16.5296 3.78637 16.927 5.81224C17 6.18464 17 6.6037 17 7.44177L17 8.55817C17 9.39623 17 9.81528 16.927 10.1877C16.5296 12.2136 14.8736 13.1179 12.9659 13.656C12.1733 13.8796 11.7769 13.9913 11.4563 13.9992C10.0779 14.0329 9.04907 12.9846 9 11.75" stroke="#0C0D0D" stroke-width="1.5" stroke-linecap="round"/>
<path d="M12.3333 7.99997L4.99998 7.99997M12.3333 7.99997C12.3333 8.46677 11.0038 9.33895 10.6666 9.66664M12.3333 7.99997C12.3333 7.53317 11.0038 6.66097 10.6666 6.3333" stroke="#0C0D0D" stroke-width="1.5" stroke-linecap="round" stroke-linejoin="round"/>
</g>
<defs>
<filter id="filter0_d_191_94" x="-1" y="0" width="24" height="24" filterUnits="userSpaceOnUse" color-interpolation-filters="sRGB">
<feFlood flood-opacity="0" result="BackgroundImageFix"/>
<feColorMatrix in="SourceAlpha" type="matrix" values="0 0 0 0 0 0 0 0 0 0 0 0 0 0 0 0 0 0 127 0" result="hardAlpha"/>
<feOffset dy="4"/>
<feGaussianBlur stdDeviation="2"/>
<feComposite in2="hardAlpha" operator="out"/>
<feColorMatrix type="matrix" values="0 0 0 0 0 0 0 0 0 0 0 0 0 0 0 0 0 0 0.25 0"/>
<feBlend mode="normal" in2="BackgroundImageFix" result="effect1_dropShadow_191_94"/>
<feBlend mode="normal" in="SourceGraphic" in2="effect1_dropShadow_191_94" result="shape"/>
</filter>
</defs>
</svg>
