<svg width="22" height="23" viewBox="0 0 22 23" fill="none" xmlns="http://www.w3.org/2000/svg">
<g filter="url(#filter0_d_203_634)">
<path d="M13 11.75C12.9509 12.9846 11.9221 14.0329 10.5437 13.9992C10.2231 13.9913 9.82673 13.8796 9.03408 13.656C7.12641 13.1179 5.47037 12.2135 5.07304 10.1877C5 9.81533 5 9.39626 5 8.5582V7.4418C5 6.60374 5 6.1847 5.07304 5.8123C5.47037 3.78643 7.12641 2.8821 9.03408 2.34402C9.82673 2.12042 10.2231 2.00863 10.5437 2.00079C11.9221 1.96707 12.9509 3.01538 13 4.25" stroke="#495D69" stroke-width="1.5" stroke-linecap="round"/>
<path d="M17 8.00004H9.66663M17 8.00004C17 7.53324 15.6704 6.66106 15.3333 6.33337M17 8.00004C17 8.46684 15.6704 9.33904 15.3333 9.66671" stroke="#495D69" stroke-width="1.5" stroke-linecap="round" stroke-linejoin="round"/>
</g>
<defs>
<filter id="filter0_d_203_634" x="-1" y="0" width="24" height="24" filterUnits="userSpaceOnUse" color-interpolation-filters="sRGB">
<feFlood flood-opacity="0" result="BackgroundImageFix"/>
<feColorMatrix in="SourceAlpha" type="matrix" values="0 0 0 0 0 0 0 0 0 0 0 0 0 0 0 0 0 0 127 0" result="hardAlpha"/>
<feOffset dy="4"/>
<feGaussianBlur stdDeviation="2"/>
<feComposite in2="hardAlpha" operator="out"/>
<feColorMatrix type="matrix" values="0 0 0 0 0 0 0 0 0 0 0 0 0 0 0 0 0 0 0.25 0"/>
<feBlend mode="normal" in2="BackgroundImageFix" result="effect1_dropShadow_203_634"/>
<feBlend mode="normal" in="SourceGraphic" in2="effect1_dropShadow_203_634" result="shape"/>
</filter>
</defs>
</svg>
