<svg width="16" height="16" viewBox="0 0 16 16" fill="none" xmlns="http://www.w3.org/2000/svg">
<path d="M1.33334 4L5.94202 6.61131C7.64108 7.574 8.35894 7.574 10.058 6.61131L14.6667 4" stroke="#C1CF16" stroke-width="1.5" stroke-linejoin="round"/>
<path d="M1.34386 8.98365C1.38744 11.0274 1.40923 12.0492 2.16332 12.8062C2.9174 13.5631 3.9669 13.5895 6.0659 13.6422C7.35954 13.6747 8.64048 13.6747 9.93414 13.6422C12.0331 13.5895 13.0826 13.5631 13.8367 12.8062C14.5908 12.0492 14.6126 11.0274 14.6561 8.98365C14.6702 8.32652 14.6702 7.67332 14.6561 7.01619C14.6126 4.97249 14.5908 3.95065 13.8367 3.19369C13.0826 2.43674 12.0331 2.41037 9.93414 2.35763C8.64048 2.32513 7.35954 2.32513 6.06589 2.35763C3.9669 2.41036 2.9174 2.43673 2.16331 3.19369C1.40922 3.95064 1.38744 4.97249 1.34385 7.01619C1.32984 7.67332 1.32984 8.32652 1.34386 8.98365Z" stroke="#C1CF16" stroke-width="1.5" stroke-linejoin="round"/>
</svg>
