<svg width="16" height="16" viewBox="0 0 16 16" fill="none" xmlns="http://www.w3.org/2000/svg">
<path d="M14.2116 4.76089L13.8826 4.18982C13.6337 3.75793 13.5093 3.54199 13.2976 3.45588C13.0858 3.36977 12.8464 3.43772 12.3675 3.57361L11.554 3.80275C11.2483 3.87325 10.9275 3.83325 10.6484 3.68982L10.4238 3.56024C10.1844 3.40691 10.0002 3.18085 9.89829 2.91512L9.67569 2.2502C9.52929 1.81019 9.45609 1.59018 9.28182 1.46434C9.10762 1.3385 8.87616 1.3385 8.41322 1.3385H7.67003C7.20716 1.3385 6.97569 1.3385 6.80142 1.46434C6.62719 1.59018 6.554 1.81019 6.40762 2.2502L6.18498 2.91512C6.08306 3.18085 5.89892 3.40691 5.65954 3.56024L5.43495 3.68982C5.15578 3.83325 4.83502 3.87325 4.52928 3.80275L3.71579 3.57361C3.2369 3.43772 2.99746 3.36977 2.78574 3.45588C2.57402 3.54199 2.44959 3.75793 2.20073 4.18982L1.87167 4.76089C1.6384 5.16572 1.52176 5.36814 1.5444 5.58362C1.56703 5.7991 1.72318 5.97275 2.03547 6.32004L2.72283 7.08849C2.89083 7.30116 3.0101 7.67183 3.0101 8.00509C3.0101 8.33849 2.89087 8.70903 2.72285 8.92176L2.03547 9.69023C1.72318 10.0376 1.56704 10.2112 1.5444 10.4267C1.52176 10.6422 1.6384 10.8446 1.87167 11.2494L2.20072 11.8204C2.44958 12.2523 2.57402 12.4683 2.78574 12.5544C2.99746 12.6405 3.2369 12.5726 3.7158 12.4366L4.52925 12.2075C4.83504 12.137 5.15587 12.177 5.43507 12.3205L5.65962 12.4501C5.89896 12.6034 6.08305 12.8294 6.18496 13.0952L6.40762 13.7602C6.554 14.2002 6.62719 14.4202 6.80142 14.546C6.97569 14.6718 7.20716 14.6718 7.67003 14.6718H8.41322C8.87616 14.6718 9.10762 14.6718 9.28182 14.546C9.45609 14.4202 9.52929 14.2002 9.67569 13.7602L9.89836 13.0952C10.0002 12.8294 10.1843 12.6034 10.4237 12.4501L10.6482 12.3205C10.9274 12.177 11.2482 12.137 11.554 12.2075L12.3675 12.4366C12.8464 12.5726 13.0858 12.6405 13.2976 12.5544C13.5093 12.4683 13.6337 12.2523 13.8826 11.8204L14.2116 11.2494C14.4449 10.8446 14.5615 10.6422 14.5389 10.4267C14.5162 10.2112 14.3601 10.0376 14.0478 9.69023L13.3604 8.92176C13.1924 8.70903 13.0732 8.33849 13.0732 8.00509C13.0732 7.67183 13.1925 7.30116 13.3604 7.08849L14.0478 6.32004C14.3601 5.97275 14.5162 5.7991 14.5389 5.58362C14.5615 5.36814 14.4449 5.16572 14.2116 4.76089Z" stroke="#495D69" stroke-width="1.5" stroke-linecap="round"/>
<path d="M10.3463 7.99996C10.3463 9.28863 9.30167 10.3333 8.013 10.3333C6.72433 10.3333 5.67969 9.28863 5.67969 7.99996C5.67969 6.71129 6.72433 5.66663 8.013 5.66663C9.30167 5.66663 10.3463 6.71129 10.3463 7.99996Z" stroke="#495D69" stroke-width="1.5"/>
</svg>
