<svg width="16" height="16" viewBox="0 0 16 16" fill="none" xmlns="http://www.w3.org/2000/svg">
<path d="M1.97791 6.99707V10.3316C1.97791 12.2179 1.97791 13.161 2.56369 13.747C3.14948 14.3331 4.09229 14.3331 5.97791 14.3331H9.97791C11.8635 14.3331 12.8063 14.3331 13.3921 13.747C13.9779 13.161 13.9779 12.2179 13.9779 10.3316V6.99707" stroke="#495D69" stroke-width="1.5" stroke-linecap="round"/>
<path d="M4.64453 11.9955H7.3112" stroke="#495D69" stroke-width="1.5" stroke-linecap="round"/>
<path d="M6.73591 5.61201C6.54792 6.29095 5.86423 7.46208 4.56522 7.63182C3.41826 7.78168 2.54835 7.28109 2.32615 7.07175C2.08116 6.90202 1.52281 6.35884 1.38608 6.01937C1.24934 5.67991 1.40887 4.9444 1.52281 4.64454L1.97833 3.32561C2.08953 2.99433 2.34984 2.2108 2.61671 1.94578C2.88359 1.68076 3.42391 1.66922 3.64631 1.66922H8.31664C9.51877 1.68621 12.1473 1.65851 12.6669 1.66923C13.1865 1.67995 13.4988 2.11551 13.5899 2.30222C14.3652 4.1801 14.6667 5.25558 14.6667 5.71385C14.5655 6.20273 14.1467 7.12455 12.6669 7.53002C11.1289 7.95142 10.257 7.13175 9.98344 6.81715M6.10352 6.81715C6.32002 7.08302 6.99917 7.61828 7.98364 7.63182C8.96817 7.64542 9.81824 6.95855 10.1202 6.61344C10.2056 6.5116 10.3902 6.20948 10.5817 5.61201" stroke="#495D69" stroke-width="1.5" stroke-linecap="round" stroke-linejoin="round"/>
</svg>
