<svg width="16" height="16" viewBox="0 0 16 16" fill="none" xmlns="http://www.w3.org/2000/svg">
<path d="M1.97784 6.99707V10.3316C1.97784 12.2179 1.97784 13.161 2.56363 13.747C3.14942 14.3331 4.09222 14.3331 5.97784 14.3331H9.97784C11.8634 14.3331 12.8062 14.3331 13.392 13.747C13.9778 13.161 13.9778 12.2179 13.9778 10.3316V6.99707" stroke="#C1CF16" stroke-width="1.5" stroke-linecap="round"/>
<path d="M4.64453 11.9955H7.3112" stroke="#C1CF16" stroke-width="1.5" stroke-linecap="round"/>
<path d="M6.73584 5.61201C6.54786 6.29095 5.86416 7.46208 4.56516 7.63182C3.4182 7.78168 2.54828 7.28109 2.32608 7.07175C2.0811 6.90202 1.52275 6.35884 1.38602 6.01937C1.24928 5.67991 1.4088 4.9444 1.52275 4.64454L1.97826 3.32561C2.08946 2.99433 2.34978 2.2108 2.61665 1.94578C2.88353 1.68076 3.42385 1.66922 3.64624 1.66922H8.31658C9.51871 1.68621 12.1472 1.65851 12.6668 1.66923C13.1864 1.67995 13.4987 2.11551 13.5898 2.30222C14.3651 4.1801 14.6666 5.25558 14.6666 5.71385C14.5654 6.20273 14.1466 7.12455 12.6668 7.53002C11.1288 7.95142 10.2569 7.13175 9.98338 6.81715M6.10346 6.81715C6.31996 7.08302 6.99911 7.61828 7.98358 7.63182C8.96811 7.64542 9.81818 6.95855 10.1201 6.61344C10.2056 6.5116 10.3902 6.20948 10.5816 5.61201" stroke="#C1CF16" stroke-width="1.5" stroke-linecap="round" stroke-linejoin="round"/>
</svg>
