<svg width="16" height="16" viewBox="0 0 16 16" fill="none" xmlns="http://www.w3.org/2000/svg">
<path d="M7.99998 13.6667C9.20645 13.6667 10.3634 13.5475 11.4356 13.329C12.7748 13.056 13.4445 12.9194 14.0556 12.1338C14.6666 11.3481 14.6666 10.4462 14.6666 8.64237V7.35771C14.6666 5.55386 14.6666 4.65195 14.0556 3.86629C13.4445 3.08063 12.7748 2.94413 11.4356 2.67112C10.3634 2.45255 9.20645 2.33337 7.99998 2.33337C6.79351 2.33337 5.63657 2.45255 4.56435 2.67112C3.22509 2.94413 2.55545 3.08063 1.94438 3.86629C1.33331 4.65195 1.33331 5.55386 1.33331 7.35771V8.64237C1.33331 10.4462 1.33331 11.3481 1.94438 12.1338C2.55545 12.9194 3.22509 13.056 4.56435 13.329C5.63657 13.5475 6.79351 13.6667 7.99998 13.6667Z" stroke="#0C0D0D" stroke-width="1.5"/>
<path d="M10.6414 8.20856C10.5425 8.61242 10.0161 8.90249 8.96327 9.48269C7.81813 10.1136 7.2456 10.4292 6.78187 10.3076C6.6248 10.2664 6.48013 10.194 6.35866 10.0958C6 9.80589 6 9.20389 6 7.99996C6 6.79602 6 6.19404 6.35866 5.90408C6.48013 5.80586 6.6248 5.73348 6.78187 5.69232C7.2456 5.57076 7.81813 5.88626 8.96327 6.51724C10.0161 7.09742 10.5425 7.38749 10.6414 7.79136C10.6751 7.92883 10.6751 8.07109 10.6414 8.20856Z" stroke="#0C0D0D" stroke-width="1.5" stroke-linejoin="round"/>
</svg>
